<?xml version="1.0" encoding="UTF-8"?>
<!DOCTYPE svg PUBLIC "-//W3C//DTD SVG 1.1//EN" "http://www.w3.org/Graphics/SVG/1.1/DTD/svg11.dtd">
<svg version="1.2" width="127mm" height="96.52mm" viewBox="0 0 12700 9652" preserveAspectRatio="xMidYMid" fill-rule="evenodd" stroke-width="28.222" stroke-linejoin="round" xmlns="http://www.w3.org/2000/svg" xmlns:ooo="http://xml.openoffice.org/svg/export" xmlns:xlink="http://www.w3.org/1999/xlink" xmlns:presentation="http://sun.com/xmlns/staroffice/presentation" xmlns:smil="http://www.w3.org/2001/SMIL20/" xmlns:anim="urn:oasis:names:tc:opendocument:xmlns:animation:1.0" xml:space="preserve">
 <defs class="ClipPathGroup">
  <clipPath id="presentation_clip_path" clipPathUnits="userSpaceOnUse">
   <rect x="0" y="0" width="12700" height="9652"/>
  </clipPath>
 </defs>
 <defs class="TextShapeIndex">
  <g ooo:slide="id1" ooo:id-list="id3 id4 id5 id6 id7 id8 id9 id10 id11 id12 id13 id14 id15 id16 id17 id18 id19"/>
 </defs>
 <defs class="EmbeddedBulletChars">
  <g id="bullet-char-template(57356)" transform="scale(0.00048828125,-0.00048828125)">
   <path d="M 580,1141 L 1163,571 580,0 -4,571 580,1141 Z"/>
  </g>
  <g id="bullet-char-template(57354)" transform="scale(0.00048828125,-0.00048828125)">
   <path d="M 8,1128 L 1137,1128 1137,0 8,0 8,1128 Z"/>
  </g>
  <g id="bullet-char-template(10146)" transform="scale(0.00048828125,-0.00048828125)">
   <path d="M 174,0 L 602,739 174,1481 1456,739 174,0 Z M 1358,739 L 309,1346 659,739 1358,739 Z"/>
  </g>
  <g id="bullet-char-template(10132)" transform="scale(0.00048828125,-0.00048828125)">
   <path d="M 2015,739 L 1276,0 717,0 1260,543 174,543 174,936 1260,936 717,1481 1274,1481 2015,739 Z"/>
  </g>
  <g id="bullet-char-template(10007)" transform="scale(0.00048828125,-0.00048828125)">
   <path d="M 0,-2 C -7,14 -16,27 -25,37 L 356,567 C 262,823 215,952 215,954 215,979 228,992 255,992 264,992 276,990 289,987 310,991 331,999 354,1012 L 381,999 492,748 772,1049 836,1024 860,1049 C 881,1039 901,1025 922,1006 886,937 835,863 770,784 769,783 710,716 594,584 L 774,223 C 774,196 753,168 711,139 L 727,119 C 717,90 699,76 672,76 641,76 570,178 457,381 L 164,-76 C 142,-110 111,-127 72,-127 30,-127 9,-110 8,-76 1,-67 -2,-52 -2,-32 -2,-23 -1,-13 0,-2 Z"/>
  </g>
  <g id="bullet-char-template(10004)" transform="scale(0.00048828125,-0.00048828125)">
   <path d="M 285,-33 C 182,-33 111,30 74,156 52,228 41,333 41,471 41,549 55,616 82,672 116,743 169,778 240,778 293,778 328,747 346,684 L 369,508 C 377,444 397,411 428,410 L 1163,1116 C 1174,1127 1196,1133 1229,1133 1271,1133 1292,1118 1292,1087 L 1292,965 C 1292,929 1282,901 1262,881 L 442,47 C 390,-6 338,-33 285,-33 Z"/>
  </g>
  <g id="bullet-char-template(9679)" transform="scale(0.00048828125,-0.00048828125)">
   <path d="M 813,0 C 632,0 489,54 383,161 276,268 223,411 223,592 223,773 276,916 383,1023 489,1130 632,1184 813,1184 992,1184 1136,1130 1245,1023 1353,916 1407,772 1407,592 1407,412 1353,268 1245,161 1136,54 992,0 813,0 Z"/>
  </g>
  <g id="bullet-char-template(8226)" transform="scale(0.00048828125,-0.00048828125)">
   <path d="M 346,457 C 273,457 209,483 155,535 101,586 74,649 74,723 74,796 101,859 155,911 209,963 273,989 346,989 419,989 480,963 531,910 582,859 608,796 608,723 608,648 583,586 532,535 482,483 420,457 346,457 Z"/>
  </g>
  <g id="bullet-char-template(8211)" transform="scale(0.00048828125,-0.00048828125)">
   <path d="M -4,459 L 1135,459 1135,606 -4,606 -4,459 Z"/>
  </g>
 </defs>
 <defs class="TextEmbeddedBitmaps"/>
 <g>
  <g id="id2" class="Master_Slide">
   <g id="bg-id2" class="Background"/>
   <g id="bo-id2" class="BackgroundObjects"/>
  </g>
 </g>
 <g class="SlideGroup">
  <g>
   <g id="id1" class="Slide" clip-path="url(#presentation_clip_path)">
    <g class="Page">
     <g class="Group">
      <g class="com.sun.star.drawing.CustomShape">
       <g id="id3">
        <rect class="BoundingBox" stroke="none" fill="none" x="1024" y="1093" width="10631" height="7467"/>
        <path fill="rgb(120,185,85)" stroke="none" d="M 6339,1093 C 9352,1093 11653,2709 11653,4825 11653,6941 9352,8558 6339,8558 3326,8558 1025,6941 1025,4825 1025,2709 3326,1093 6339,1093 Z M 1025,1093 L 1025,1093 Z M 11654,8559 L 11654,8559 Z"/>
       </g>
      </g>
      <g class="com.sun.star.drawing.CustomShape">
       <g id="id4">
        <rect class="BoundingBox" stroke="none" fill="none" x="1030" y="4890" width="5311" height="3665"/>
        <path fill="rgb(120,185,85)" stroke="none" d="M 3685,8554 L 1030,8554 1030,4890 6340,4890 6340,8554 3685,8554 Z"/>
       </g>
      </g>
      <g class="Group">
       <g class="com.sun.star.drawing.CustomShape">
        <g id="id5">
         <rect class="BoundingBox" stroke="none" fill="none" x="7906" y="4048" width="2029" height="2239"/>
         <path fill="rgb(255,255,255)" stroke="none" d="M 7970,5886 C 7938,5927 7948,5997 7991,6027 L 8327,6267 C 8369,6298 8443,6288 8475,6247 L 9870,4448 C 9901,4408 9891,4337 9848,4307 L 9512,4066 C 9470,4036 9397,4047 9365,4087 L 7970,5886 Z M 7907,5967 L 7907,5967 Z M 9934,4366 L 9934,4366 Z"/>
        </g>
       </g>
       <g class="com.sun.star.drawing.CustomShape">
        <g id="id6">
         <rect class="BoundingBox" stroke="none" fill="none" x="7939" y="3904" width="1981" height="541"/>
         <path fill="rgb(255,255,255)" stroke="none" d="M 8028,3904 C 7983,3904 7939,3949 7939,3994 L 7939,4354 C 7939,4399 7983,4444 8028,4444 L 9828,4444 C 9873,4444 9918,4399 9918,4354 L 9918,3994 C 9918,3949 9873,3904 9828,3904 L 8028,3904 Z M 7939,3904 L 7939,3904 Z M 9919,4444 L 9919,4444 Z"/>
        </g>
       </g>
       <g class="com.sun.star.drawing.CustomShape">
        <g id="id7">
         <rect class="BoundingBox" stroke="none" fill="none" x="7938" y="5884" width="1981" height="542"/>
         <path fill="rgb(255,255,255)" stroke="none" d="M 8028,5884 C 7983,5884 7938,5929 7938,5974 L 7938,6334 C 7938,6379 7983,6425 8028,6425 L 9827,6425 C 9872,6425 9917,6379 9917,6334 L 9917,5974 C 9917,5929 9872,5884 9827,5884 L 8028,5884 Z M 7938,5884 L 7938,5884 Z M 9918,6425 L 9918,6425 Z"/>
        </g>
       </g>
       <g class="com.sun.star.drawing.CustomShape">
        <g id="id8">
         <rect class="BoundingBox" stroke="none" fill="none" x="8720" y="5527" width="313" height="560"/>
         <path fill="rgb(255,255,255)" stroke="none" d="M 8827,5650 L 8818,5657 8809,5664 8800,5671 8792,5678 8784,5686 8778,5694 8770,5703 8764,5711 8757,5720 8751,5729 8747,5738 8742,5749 8738,5757 8734,5767 8730,5777 8727,5787 8725,5797 8724,5808 8722,5817 8721,5827 8721,5838 8722,5848 8723,5857 8724,5867 8726,5876 8728,5886 8731,5895 8735,5904 8739,5912 8743,5921 8748,5929 8753,5936 8759,5944 8766,5951 8772,5958 8780,5964 8787,5970 8795,5975 8804,5981 8811,5985 8820,5990 8830,5993 8839,5997 8849,5999 8859,6001 8869,6003 8879,6005 8889,6005 8900,6005 8909,6005 8921,6004 8931,6003 8941,6001 8952,5999 8962,5996 8972,5992 8982,5989 8993,5985 9003,5980 9013,5975 9022,5970 9031,5964 8980,5886 8975,5889 8971,5892 8966,5894 8961,5896 8956,5898 8951,5901 8946,5902 8940,5903 8935,5904 8930,5905 8925,5906 8920,5906 8914,5906 8909,5906 8904,5906 8899,5906 8894,5904 8889,5904 8885,5902 8879,5901 8875,5899 8870,5896 8866,5894 8862,5892 8858,5889 8854,5886 8851,5883 8847,5879 8845,5876 8841,5872 8839,5868 8836,5864 8834,5859 8832,5856 8830,5851 8828,5846 8827,5842 8826,5836 8826,5832 8825,5827 8825,5822 8824,5817 8826,5812 8826,5806 8827,5802 8828,5797 8830,5792 8831,5787 8833,5782 8835,5777 8837,5772 8840,5768 8843,5764 8846,5759 8849,5755 8852,5750 8857,5746 8860,5742 8864,5739 8868,5734 8873,5732 8878,5728 8827,5650 Z M 8850,6085 L 8850,6085 Z M 9007,5528 L 9007,5528 Z"/>
        </g>
       </g>
       <g class="com.sun.star.drawing.CustomShape">
        <g id="id9">
         <rect class="BoundingBox" stroke="none" fill="none" x="8812" y="4240" width="315" height="562"/>
         <path fill="rgb(255,255,255)" stroke="none" d="M 9029,4671 L 9038,4665 9047,4657 9055,4650 9062,4642 9069,4634 9077,4625 9083,4617 9089,4609 9095,4599 9101,4590 9105,4581 9109,4571 9113,4561 9117,4551 9120,4541 9122,4531 9124,4521 9125,4511 9125,4501 9126,4491 9126,4481 9125,4472 9123,4462 9122,4453 9120,4444 9117,4434 9113,4425 9110,4416 9105,4408 9100,4399 9095,4392 9090,4385 9083,4377 9077,4371 9070,4364 9062,4358 9054,4353 9047,4347 9038,4343 9030,4338 9021,4335 9011,4332 9002,4329 8992,4326 8983,4325 8973,4323 8962,4322 8952,4322 8942,4322 8931,4323 8921,4324 8911,4325 8900,4328 8890,4331 8880,4334 8870,4338 8860,4342 8850,4347 8840,4351 8831,4357 8821,4362 8813,4369 8867,4444 8871,4441 8876,4438 8880,4436 8886,4433 8890,4431 8895,4429 8901,4427 8906,4425 8911,4424 8916,4423 8921,4422 8927,4422 8931,4421 8936,4421 8942,4422 8947,4422 8952,4422 8956,4423 8962,4424 8967,4426 8971,4428 8975,4429 8979,4431 8984,4434 8988,4436 8992,4439 8995,4442 8999,4445 9002,4449 9005,4452 9008,4456 9011,4460 9012,4464 9015,4468 9017,4473 9019,4477 9020,4482 9021,4486 9022,4491 9023,4496 9023,4501 9024,4505 9024,4510 9023,4516 9023,4521 9021,4526 9020,4531 9019,4536 9017,4541 9015,4545 9013,4550 9010,4555 9008,4559 9005,4564 9002,4568 8999,4573 8995,4577 8992,4581 8988,4585 8984,4589 8979,4593 8975,4596 9029,4671 Z M 8987,4241 L 8987,4241 Z M 8855,4800 L 8855,4800 Z"/>
        </g>
       </g>
      </g>
      <g class="Group">
       <g class="com.sun.star.drawing.CustomShape">
        <g id="id10">
         <rect class="BoundingBox" stroke="none" fill="none" x="5173" y="3466" width="2533" height="2798"/>
         <path fill="rgb(255,255,255)" stroke="none" d="M 5253,5761 C 5213,5813 5226,5901 5279,5939 L 5698,6240 C 5751,6278 5843,6266 5882,6214 L 7625,3968 C 7665,3918 7652,3828 7599,3790 L 7180,3489 C 7127,3451 7035,3465 6996,3515 L 5253,5761 Z M 5174,5863 L 5174,5863 Z M 7705,3865 L 7705,3865 Z"/>
        </g>
       </g>
       <g class="com.sun.star.drawing.CustomShape">
        <g id="id11">
         <rect class="BoundingBox" stroke="none" fill="none" x="5213" y="3287" width="2475" height="674"/>
         <path fill="rgb(255,255,255)" stroke="none" d="M 5325,3287 C 5269,3287 5213,3343 5213,3399 L 5213,3847 C 5213,3903 5269,3960 5325,3960 L 7574,3960 C 7630,3960 7687,3903 7687,3847 L 7687,3399 C 7687,3343 7630,3287 7574,3287 L 5325,3287 Z M 5213,3287 L 5213,3287 Z M 7687,3960 L 7687,3960 Z"/>
        </g>
       </g>
       <g class="com.sun.star.drawing.CustomShape">
        <g id="id12">
         <rect class="BoundingBox" stroke="none" fill="none" x="5211" y="5759" width="2476" height="676"/>
         <path fill="rgb(255,255,255)" stroke="none" d="M 5324,5759 C 5268,5759 5212,5815 5212,5871 L 5212,6321 C 5212,6377 5268,6434 5324,6434 L 7573,6434 C 7629,6434 7686,6377 7686,6321 L 7686,5871 C 7686,5815 7629,5759 7573,5759 L 5324,5759 Z M 5212,5759 L 5212,5759 Z M 7686,6434 L 7686,6434 Z"/>
        </g>
       </g>
       <g class="com.sun.star.drawing.CustomShape">
        <g id="id13">
         <rect class="BoundingBox" stroke="none" fill="none" x="6191" y="5319" width="387" height="693"/>
         <path fill="rgb(255,255,255)" stroke="none" d="M 6322,5470 L 6310,5478 6300,5486 6289,5495 6279,5504 6269,5514 6260,5524 6252,5535 6244,5545 6236,5556 6229,5567 6222,5579 6217,5591 6211,5603 6206,5615 6202,5627 6198,5639 6195,5652 6193,5664 6192,5677 6191,5689 6191,5702 6192,5713 6193,5726 6194,5738 6196,5750 6200,5762 6204,5773 6208,5784 6212,5795 6218,5805 6225,5815 6231,5825 6239,5835 6246,5843 6255,5851 6264,5859 6273,5867 6283,5874 6293,5880 6304,5886 6315,5891 6326,5895 6337,5900 6349,5904 6362,5906 6374,5909 6387,5910 6400,5911 6413,5911 6426,5911 6439,5910 6452,5909 6464,5906 6478,5903 6490,5900 6503,5896 6516,5892 6529,5886 6541,5880 6553,5874 6565,5868 6576,5860 6513,5763 6507,5767 6501,5770 6496,5773 6489,5776 6483,5779 6477,5781 6470,5783 6464,5785 6457,5786 6450,5787 6444,5787 6438,5788 6431,5789 6425,5788 6418,5788 6412,5787 6406,5786 6399,5785 6393,5783 6387,5781 6382,5778 6377,5776 6372,5773 6366,5770 6362,5767 6357,5763 6352,5759 6349,5755 6345,5750 6341,5746 6337,5741 6334,5736 6332,5730 6329,5725 6327,5720 6325,5714 6323,5708 6322,5703 6321,5696 6321,5690 6321,5685 6321,5679 6321,5672 6322,5666 6323,5659 6324,5653 6326,5647 6328,5641 6330,5635 6334,5629 6337,5623 6339,5618 6344,5612 6347,5606 6351,5601 6356,5595 6360,5591 6365,5585 6370,5581 6375,5577 6380,5573 6386,5569 6322,5470 Z M 6352,6010 L 6352,6010 Z M 6547,5319 L 6547,5319 Z"/>
        </g>
       </g>
       <g class="com.sun.star.drawing.CustomShape">
        <g id="id14">
         <rect class="BoundingBox" stroke="none" fill="none" x="6304" y="3705" width="394" height="701"/>
         <path fill="rgb(255,255,255)" stroke="none" d="M 6576,4244 L 6587,4236 6597,4228 6607,4218 6616,4208 6627,4198 6635,4187 6643,4177 6650,4166 6658,4154 6664,4143 6671,4131 6675,4119 6680,4107 6685,4095 6688,4082 6692,4070 6694,4057 6696,4045 6696,4032 6696,4019 6696,4007 6695,3995 6694,3983 6691,3971 6689,3959 6684,3948 6680,3937 6676,3925 6671,3915 6665,3905 6658,3895 6651,3885 6643,3876 6635,3869 6625,3861 6617,3853 6607,3845 6597,3839 6586,3833 6575,3828 6564,3823 6553,3820 6541,3816 6529,3812 6517,3810 6504,3808 6491,3808 6479,3807 6466,3808 6453,3809 6440,3809 6427,3812 6414,3815 6401,3818 6389,3822 6376,3827 6363,3831 6351,3838 6339,3844 6327,3850 6315,3857 6304,3866 6372,3960 6377,3956 6384,3952 6389,3949 6395,3946 6402,3943 6407,3940 6414,3938 6420,3936 6426,3935 6434,3933 6440,3933 6446,3931 6453,3930 6459,3931 6465,3931 6472,3931 6478,3933 6484,3933 6490,3935 6497,3937 6502,3939 6507,3941 6513,3944 6518,3947 6524,3950 6529,3954 6532,3957 6537,3962 6541,3966 6545,3970 6549,3975 6552,3980 6555,3985 6558,3991 6560,3996 6562,4001 6564,4007 6566,4013 6567,4019 6568,4026 6568,4031 6569,4037 6569,4044 6568,4050 6567,4056 6566,4063 6565,4069 6563,4075 6561,4081 6558,4087 6555,4093 6553,4099 6549,4105 6546,4111 6542,4117 6538,4122 6533,4127 6529,4132 6524,4137 6519,4141 6514,4146 6508,4150 6576,4244 Z M 6522,3706 L 6522,3706 Z M 6359,4405 L 6359,4405 Z"/>
        </g>
       </g>
      </g>
      <g class="Group">
       <g class="com.sun.star.drawing.CustomShape">
        <g id="id15">
         <rect class="BoundingBox" stroke="none" fill="none" x="2466" y="3466" width="2533" height="2798"/>
         <path fill="rgb(255,255,255)" stroke="none" d="M 2546,5761 C 2506,5813 2519,5901 2572,5939 L 2991,6240 C 3044,6278 3136,6266 3175,6214 L 4918,3968 C 4958,3918 4945,3828 4892,3790 L 4473,3489 C 4420,3451 4328,3465 4289,3515 L 2546,5761 Z M 2467,5863 L 2467,5863 Z M 4998,3865 L 4998,3865 Z"/>
        </g>
       </g>
       <g class="com.sun.star.drawing.CustomShape">
        <g id="id16">
         <rect class="BoundingBox" stroke="none" fill="none" x="2505" y="3287" width="2476" height="674"/>
         <path fill="rgb(255,255,255)" stroke="none" d="M 2618,3287 C 2562,3287 2506,3343 2506,3399 L 2506,3847 C 2506,3903 2562,3960 2618,3960 L 4867,3960 C 4923,3960 4980,3903 4980,3847 L 4980,3399 C 4980,3343 4923,3287 4867,3287 L 2618,3287 Z M 2506,3287 L 2506,3287 Z M 4980,3960 L 4980,3960 Z"/>
        </g>
       </g>
       <g class="com.sun.star.drawing.CustomShape">
        <g id="id17">
         <rect class="BoundingBox" stroke="none" fill="none" x="2507" y="5759" width="2474" height="676"/>
         <path fill="rgb(255,255,255)" stroke="none" d="M 2619,5759 C 2563,5759 2507,5815 2507,5871 L 2507,6321 C 2507,6377 2563,6434 2619,6434 L 4867,6434 C 4923,6434 4980,6377 4980,6321 L 4980,5871 C 4980,5815 4923,5759 4867,5759 L 2619,5759 Z M 2507,5759 L 2507,5759 Z M 4980,6434 L 4980,6434 Z"/>
        </g>
       </g>
       <g class="com.sun.star.drawing.CustomShape">
        <g id="id18">
         <rect class="BoundingBox" stroke="none" fill="none" x="3484" y="5318" width="387" height="694"/>
         <path fill="rgb(255,255,255)" stroke="none" d="M 3615,5470 L 3603,5478 3593,5486 3582,5495 3572,5504 3562,5514 3553,5524 3545,5535 3537,5545 3529,5556 3522,5567 3515,5579 3510,5591 3504,5603 3499,5615 3495,5627 3491,5639 3488,5652 3486,5664 3485,5677 3484,5689 3484,5702 3485,5713 3486,5726 3487,5738 3489,5750 3493,5762 3497,5773 3501,5784 3505,5795 3511,5805 3518,5815 3524,5825 3532,5835 3539,5843 3548,5851 3557,5859 3566,5867 3576,5874 3586,5880 3597,5886 3608,5891 3619,5895 3630,5900 3642,5904 3655,5906 3667,5909 3680,5910 3693,5911 3706,5911 3719,5911 3732,5910 3745,5909 3757,5906 3771,5903 3783,5900 3796,5896 3809,5892 3822,5886 3834,5880 3846,5874 3858,5868 3869,5860 3806,5763 3800,5767 3794,5770 3789,5773 3782,5776 3776,5779 3770,5781 3763,5783 3757,5785 3750,5786 3743,5787 3737,5787 3731,5788 3724,5789 3718,5788 3711,5788 3705,5787 3699,5785 3692,5785 3686,5783 3680,5781 3675,5778 3670,5776 3664,5773 3659,5770 3654,5766 3649,5762 3645,5759 3641,5754 3637,5750 3633,5745 3630,5740 3627,5735 3624,5730 3622,5724 3619,5718 3617,5714 3616,5707 3614,5701 3614,5695 3613,5689 3613,5683 3613,5677 3613,5671 3614,5664 3616,5658 3616,5652 3618,5646 3620,5639 3622,5633 3625,5627 3629,5622 3631,5616 3636,5610 3639,5604 3643,5599 3647,5594 3652,5589 3657,5584 3662,5579 3667,5576 3672,5571 3678,5567 3615,5470 Z M 3645,6010 L 3645,6010 Z M 3838,5319 L 3838,5319 Z"/>
        </g>
       </g>
       <g class="com.sun.star.drawing.CustomShape">
        <g id="id19">
         <rect class="BoundingBox" stroke="none" fill="none" x="3597" y="3706" width="396" height="701"/>
         <path fill="rgb(255,255,255)" stroke="none" d="M 3870,4246 L 3882,4238 3892,4229 3902,4219 3911,4210 3921,4200 3929,4189 3937,4178 3945,4168 3952,4156 3959,4145 3965,4133 3970,4121 3975,4109 3980,4096 3983,4084 3986,4071 3988,4058 3990,4046 3991,4033 3991,4021 3991,4009 3989,3996 3988,3984 3985,3972 3983,3960 3979,3949 3974,3938 3970,3926 3965,3916 3959,3906 3952,3896 3945,3886 3937,3877 3929,3870 3919,3862 3910,3854 3901,3846 3891,3840 3880,3834 3869,3829 3858,3824 3846,3820 3835,3816 3823,3813 3811,3811 3798,3809 3785,3808 3772,3807 3759,3808 3746,3809 3733,3810 3720,3812 3708,3815 3694,3819 3682,3822 3669,3827 3657,3831 3644,3838 3632,3844 3620,3851 3609,3858 3598,3866 3666,3961 3671,3957 3678,3953 3683,3950 3689,3947 3696,3944 3701,3941 3708,3939 3714,3937 3720,3936 3728,3934 3734,3934 3740,3932 3747,3931 3753,3932 3759,3932 3766,3932 3772,3934 3778,3934 3784,3936 3791,3938 3796,3940 3801,3942 3807,3945 3812,3948 3818,3951 3823,3955 3826,3958 3831,3963 3835,3967 3839,3971 3843,3976 3846,3981 3849,3986 3852,3992 3854,3997 3856,4002 3858,4008 3860,4014 3861,4020 3862,4027 3862,4032 3863,4038 3863,4045 3862,4051 3861,4057 3860,4064 3859,4070 3857,4076 3855,4082 3852,4088 3849,4094 3847,4100 3843,4106 3840,4112 3836,4118 3832,4123 3827,4128 3823,4133 3818,4138 3813,4142 3808,4147 3802,4151 3870,4246 Z M 3815,3706 L 3815,3706 Z M 3653,4406 L 3653,4406 Z"/>
        </g>
       </g>
      </g>
     </g>
    </g>
   </g>
  </g>
 </g>
</svg>