<?xml version="1.0" encoding="UTF-8"?>
<!DOCTYPE svg PUBLIC "-//W3C//DTD SVG 1.1//EN" "http://www.w3.org/Graphics/SVG/1.1/DTD/svg11.dtd">
<svg version="1.2" width="76.21mm" height="53.6mm" viewBox="2529 2146 7621 5360" preserveAspectRatio="xMidYMid" fill-rule="evenodd" stroke-width="28.222" stroke-linejoin="round" xmlns="http://www.w3.org/2000/svg" xmlns:ooo="http://xml.openoffice.org/svg/export" xmlns:xlink="http://www.w3.org/1999/xlink" xmlns:presentation="http://sun.com/xmlns/staroffice/presentation" xmlns:smil="http://www.w3.org/2001/SMIL20/" xmlns:anim="urn:oasis:names:tc:opendocument:xmlns:animation:1.0" xml:space="preserve">
 <defs class="ClipPathGroup">
  <clipPath id="presentation_clip_path" clipPathUnits="userSpaceOnUse">
   <rect x="2529" y="2146" width="7621" height="5360"/>
  </clipPath>
 </defs>
 <defs class="TextShapeIndex">
  <g ooo:slide="id1" ooo:id-list="id3 id4 id5 id6 id7 id8 id9 id10 id11 id12 id13 id14 id15 id16 id17 id18 id19"/>
 </defs>
 <defs class="EmbeddedBulletChars">
  <g id="bullet-char-template(57356)" transform="scale(0.00048828125,-0.00048828125)">
   <path d="M 580,1141 L 1163,571 580,0 -4,571 580,1141 Z"/>
  </g>
  <g id="bullet-char-template(57354)" transform="scale(0.00048828125,-0.00048828125)">
   <path d="M 8,1128 L 1137,1128 1137,0 8,0 8,1128 Z"/>
  </g>
  <g id="bullet-char-template(10146)" transform="scale(0.00048828125,-0.00048828125)">
   <path d="M 174,0 L 602,739 174,1481 1456,739 174,0 Z M 1358,739 L 309,1346 659,739 1358,739 Z"/>
  </g>
  <g id="bullet-char-template(10132)" transform="scale(0.00048828125,-0.00048828125)">
   <path d="M 2015,739 L 1276,0 717,0 1260,543 174,543 174,936 1260,936 717,1481 1274,1481 2015,739 Z"/>
  </g>
  <g id="bullet-char-template(10007)" transform="scale(0.00048828125,-0.00048828125)">
   <path d="M 0,-2 C -7,14 -16,27 -25,37 L 356,567 C 262,823 215,952 215,954 215,979 228,992 255,992 264,992 276,990 289,987 310,991 331,999 354,1012 L 381,999 492,748 772,1049 836,1024 860,1049 C 881,1039 901,1025 922,1006 886,937 835,863 770,784 769,783 710,716 594,584 L 774,223 C 774,196 753,168 711,139 L 727,119 C 717,90 699,76 672,76 641,76 570,178 457,381 L 164,-76 C 142,-110 111,-127 72,-127 30,-127 9,-110 8,-76 1,-67 -2,-52 -2,-32 -2,-23 -1,-13 0,-2 Z"/>
  </g>
  <g id="bullet-char-template(10004)" transform="scale(0.00048828125,-0.00048828125)">
   <path d="M 285,-33 C 182,-33 111,30 74,156 52,228 41,333 41,471 41,549 55,616 82,672 116,743 169,778 240,778 293,778 328,747 346,684 L 369,508 C 377,444 397,411 428,410 L 1163,1116 C 1174,1127 1196,1133 1229,1133 1271,1133 1292,1118 1292,1087 L 1292,965 C 1292,929 1282,901 1262,881 L 442,47 C 390,-6 338,-33 285,-33 Z"/>
  </g>
  <g id="bullet-char-template(9679)" transform="scale(0.00048828125,-0.00048828125)">
   <path d="M 813,0 C 632,0 489,54 383,161 276,268 223,411 223,592 223,773 276,916 383,1023 489,1130 632,1184 813,1184 992,1184 1136,1130 1245,1023 1353,916 1407,772 1407,592 1407,412 1353,268 1245,161 1136,54 992,0 813,0 Z"/>
  </g>
  <g id="bullet-char-template(8226)" transform="scale(0.00048828125,-0.00048828125)">
   <path d="M 346,457 C 273,457 209,483 155,535 101,586 74,649 74,723 74,796 101,859 155,911 209,963 273,989 346,989 419,989 480,963 531,910 582,859 608,796 608,723 608,648 583,586 532,535 482,483 420,457 346,457 Z"/>
  </g>
  <g id="bullet-char-template(8211)" transform="scale(0.00048828125,-0.00048828125)">
   <path d="M -4,459 L 1135,459 1135,606 -4,606 -4,459 Z"/>
  </g>
 </defs>
 <defs class="TextEmbeddedBitmaps"/>
 <g class="SlideGroup">
  <g>
   <g id="id1" class="Slide" clip-path="url(#presentation_clip_path)">
    <g class="Page">
     <g class="Group">
      <g class="com.sun.star.drawing.CustomShape">
       <g id="id3">
        <rect class="BoundingBox" stroke="none" fill="none" x="2529" y="2146" width="7622" height="5361"/>
        <path fill="rgb(120,185,85)" stroke="none" d="M 6339,2146 C 8499,2146 10149,3306 10149,4825 10149,6344 8499,7505 6339,7505 4179,7505 2529,6344 2529,4825 2529,3306 4179,2146 6339,2146 Z M 2529,2146 L 2529,2146 Z M 10150,7506 L 10150,7506 Z"/>
       </g>
      </g>
      <g class="com.sun.star.drawing.CustomShape">
       <g id="id4">
        <rect class="BoundingBox" stroke="none" fill="none" x="2532" y="4872" width="3808" height="2631"/>
        <path fill="rgb(120,185,85)" stroke="none" d="M 4436,7502 L 2532,7502 2532,4872 6339,4872 6339,7502 4436,7502 Z"/>
       </g>
      </g>
      <g class="Group">
       <g class="com.sun.star.drawing.CustomShape">
        <g id="id5">
         <rect class="BoundingBox" stroke="none" fill="none" x="7462" y="4268" width="1455" height="1607"/>
         <path fill="rgb(255,255,255)" stroke="none" d="M 7508,5587 C 7485,5616 7492,5667 7522,5689 L 7763,5861 C 7793,5883 7846,5875 7869,5846 L 8870,4555 C 8893,4526 8886,4475 8856,4453 L 8615,4281 C 8585,4259 8532,4267 8509,4296 L 7508,5587 Z M 7462,5646 L 7462,5646 Z M 8916,4496 L 8916,4496 Z"/>
        </g>
       </g>
       <g class="com.sun.star.drawing.CustomShape">
        <g id="id6">
         <rect class="BoundingBox" stroke="none" fill="none" x="7486" y="4164" width="1422" height="389"/>
         <path fill="rgb(255,255,255)" stroke="none" d="M 7550,4164 C 7518,4164 7486,4196 7486,4228 L 7486,4487 C 7486,4519 7518,4552 7550,4552 L 8841,4552 C 8873,4552 8906,4519 8906,4487 L 8906,4228 C 8906,4196 8873,4164 8841,4164 L 7550,4164 Z M 7486,4164 L 7486,4164 Z M 8906,4552 L 8906,4552 Z"/>
        </g>
       </g>
       <g class="com.sun.star.drawing.CustomShape">
        <g id="id7">
         <rect class="BoundingBox" stroke="none" fill="none" x="7485" y="5585" width="1422" height="389"/>
         <path fill="rgb(255,255,255)" stroke="none" d="M 7549,5585 C 7517,5585 7485,5617 7485,5649 L 7485,5908 C 7485,5940 7517,5973 7549,5973 L 8840,5973 C 8872,5973 8905,5940 8905,5908 L 8905,5649 C 8905,5617 8872,5585 8840,5585 L 7549,5585 Z M 7485,5585 L 7485,5585 Z M 8905,5973 L 8905,5973 Z"/>
        </g>
       </g>
       <g class="com.sun.star.drawing.CustomShape">
        <g id="id8">
         <rect class="BoundingBox" stroke="none" fill="none" x="8046" y="5328" width="225" height="405"/>
         <path fill="rgb(255,255,255)" stroke="none" d="M 8122,5417 L 8116,5421 8109,5427 8103,5432 8097,5437 8092,5442 8086,5448 8081,5455 8077,5461 8073,5467 8068,5474 8064,5480 8061,5488 8058,5494 8056,5502 8053,5509 8051,5516 8049,5523 8048,5530 8047,5538 8047,5545 8046,5552 8047,5560 8048,5566 8049,5573 8050,5581 8052,5587 8054,5594 8057,5600 8059,5606 8062,5612 8066,5618 8070,5624 8074,5629 8079,5634 8083,5639 8089,5644 8094,5648 8100,5652 8106,5655 8111,5658 8119,5662 8125,5664 8131,5667 8139,5669 8146,5670 8152,5672 8160,5673 8167,5673 8175,5673 8182,5673 8190,5673 8198,5671 8205,5670 8212,5669 8220,5667 8228,5664 8235,5662 8242,5658 8249,5655 8256,5651 8263,5647 8270,5643 8232,5587 8230,5589 8227,5591 8223,5593 8219,5595 8216,5596 8212,5598 8209,5599 8205,5600 8200,5601 8197,5602 8194,5602 8190,5603 8186,5603 8182,5602 8179,5602 8175,5602 8172,5601 8168,5601 8165,5599 8162,5598 8159,5597 8156,5596 8152,5595 8149,5593 8146,5590 8143,5589 8141,5587 8139,5585 8136,5581 8134,5579 8132,5577 8130,5573 8128,5571 8128,5568 8125,5565 8125,5561 8124,5558 8123,5555 8122,5551 8122,5548 8122,5544 8122,5540 8122,5538 8122,5534 8122,5530 8124,5527 8124,5523 8125,5520 8126,5517 8127,5513 8129,5509 8131,5506 8133,5503 8135,5500 8137,5496 8140,5493 8142,5491 8144,5488 8147,5485 8150,5482 8153,5479 8157,5477 8159,5475 8122,5417 Z M 8140,5731 L 8140,5731 Z M 8252,5329 L 8252,5329 Z"/>
        </g>
       </g>
       <g class="com.sun.star.drawing.CustomShape">
        <g id="id9">
         <rect class="BoundingBox" stroke="none" fill="none" x="8112" y="4405" width="227" height="403"/>
         <path fill="rgb(255,255,255)" stroke="none" d="M 8268,4714 L 8274,4709 8280,4704 8285,4699 8291,4693 8297,4688 8301,4682 8306,4676 8310,4669 8314,4662 8318,4656 8322,4649 8325,4642 8328,4635 8330,4628 8332,4621 8334,4614 8336,4607 8336,4599 8337,4592 8337,4585 8337,4578 8336,4571 8335,4564 8334,4557 8332,4551 8330,4544 8328,4538 8325,4531 8322,4525 8319,4520 8315,4514 8311,4508 8306,4504 8302,4499 8297,4494 8292,4490 8286,4486 8280,4483 8274,4479 8268,4476 8262,4472 8255,4471 8248,4469 8242,4467 8234,4465 8227,4465 8220,4465 8212,4464 8205,4464 8198,4465 8190,4466 8183,4467 8175,4469 8168,4471 8161,4472 8153,4476 8146,4478 8139,4482 8132,4486 8126,4489 8119,4493 8112,4498 8151,4552 8154,4549 8157,4547 8161,4545 8164,4543 8168,4541 8171,4540 8175,4539 8179,4537 8182,4536 8186,4536 8190,4535 8193,4534 8196,4534 8201,4535 8204,4535 8208,4535 8212,4535 8215,4536 8218,4537 8222,4538 8225,4538 8227,4540 8231,4541 8234,4542 8237,4545 8240,4547 8242,4549 8245,4551 8247,4554 8250,4556 8252,4558 8254,4561 8256,4564 8257,4567 8259,4570 8260,4573 8261,4576 8262,4579 8263,4583 8263,4587 8264,4590 8265,4593 8264,4596 8263,4600 8264,4604 8263,4607 8262,4611 8261,4614 8260,4618 8259,4622 8258,4625 8256,4628 8255,4631 8252,4635 8251,4638 8248,4641 8246,4644 8244,4647 8241,4650 8238,4653 8235,4656 8232,4658 8230,4660 8268,4714 Z M 8237,4406 L 8237,4406 Z M 8143,4807 L 8143,4807 Z"/>
        </g>
       </g>
      </g>
      <g class="Group">
       <g class="com.sun.star.drawing.CustomShape">
        <g id="id10">
         <rect class="BoundingBox" stroke="none" fill="none" x="5503" y="3850" width="1818" height="2010"/>
         <path fill="rgb(255,255,255)" stroke="none" d="M 5560,5498 C 5531,5534 5541,5597 5578,5624 L 5880,5842 C 5917,5869 5983,5860 6011,5824 L 7263,4212 C 7291,4175 7281,4111 7244,4084 L 6942,3866 C 6905,3839 6839,3849 6811,3885 L 5560,5498 Z M 5503,5570 L 5503,5570 Z M 7320,4138 L 7320,4138 Z"/>
        </g>
       </g>
       <g class="com.sun.star.drawing.CustomShape">
        <g id="id11">
         <rect class="BoundingBox" stroke="none" fill="none" x="5531" y="3720" width="1775" height="485"/>
         <path fill="rgb(255,255,255)" stroke="none" d="M 5611,3720 C 5571,3720 5531,3760 5531,3800 L 5531,4123 C 5531,4163 5571,4204 5611,4204 L 7224,4204 C 7264,4204 7305,4163 7305,4123 L 7305,3800 C 7305,3760 7264,3720 7224,3720 L 5611,3720 Z M 5531,3720 L 5531,3720 Z M 7305,4204 L 7305,4204 Z"/>
        </g>
       </g>
       <g class="com.sun.star.drawing.CustomShape">
        <g id="id12">
         <rect class="BoundingBox" stroke="none" fill="none" x="5531" y="5496" width="1775" height="486"/>
         <path fill="rgb(255,255,255)" stroke="none" d="M 5611,5496 C 5571,5496 5531,5536 5531,5576 L 5531,5900 C 5531,5940 5571,5981 5611,5981 L 7224,5981 C 7264,5981 7305,5940 7305,5900 L 7305,5576 C 7305,5536 7264,5496 7224,5496 L 5611,5496 Z M 5531,5496 L 5531,5496 Z M 7305,5981 L 7305,5981 Z"/>
        </g>
       </g>
       <g class="com.sun.star.drawing.CustomShape">
        <g id="id13">
         <rect class="BoundingBox" stroke="none" fill="none" x="6232" y="5179" width="279" height="499"/>
         <path fill="rgb(255,255,255)" stroke="none" d="M 6327,5288 L 6318,5294 6311,5300 6304,5306 6296,5312 6289,5320 6283,5327 6276,5334 6270,5343 6265,5350 6260,5358 6255,5367 6251,5375 6247,5384 6244,5392 6241,5401 6238,5410 6236,5419 6235,5428 6234,5437 6233,5446 6233,5455 6233,5463 6234,5472 6235,5481 6237,5489 6239,5498 6242,5506 6245,5514 6249,5521 6253,5530 6257,5536 6261,5543 6267,5550 6272,5556 6279,5562 6285,5568 6292,5573 6299,5578 6306,5583 6314,5587 6321,5591 6329,5594 6338,5596 6347,5599 6356,5601 6364,5603 6373,5604 6383,5605 6391,5605 6401,5605 6410,5604 6420,5603 6430,5601 6438,5599 6448,5597 6457,5593 6466,5591 6475,5587 6484,5582 6492,5578 6501,5573 6509,5568 6464,5498 6460,5501 6456,5504 6451,5506 6446,5508 6442,5509 6438,5511 6433,5513 6429,5514 6423,5515 6419,5515 6415,5516 6410,5516 6405,5516 6401,5517 6396,5516 6392,5516 6387,5515 6382,5514 6378,5513 6374,5511 6370,5510 6366,5508 6362,5505 6358,5503 6354,5501 6351,5498 6348,5495 6345,5492 6342,5489 6340,5485 6337,5482 6335,5479 6333,5475 6331,5471 6330,5467 6328,5463 6327,5459 6327,5454 6326,5450 6326,5446 6325,5441 6326,5437 6325,5432 6326,5428 6326,5423 6328,5419 6329,5414 6331,5410 6333,5406 6335,5401 6337,5397 6339,5393 6341,5389 6344,5385 6347,5381 6350,5377 6354,5374 6357,5371 6360,5367 6364,5363 6368,5360 6372,5358 6327,5288 Z M 6348,5676 L 6348,5676 Z M 6487,5179 L 6487,5179 Z"/>
        </g>
       </g>
       <g class="com.sun.star.drawing.CustomShape">
        <g id="id14">
         <rect class="BoundingBox" stroke="none" fill="none" x="6313" y="4022" width="284" height="503"/>
         <path fill="rgb(255,255,255)" stroke="none" d="M 6509,4410 L 6517,4404 6524,4397 6531,4391 6539,4384 6545,4377 6551,4369 6557,4362 6562,4353 6568,4346 6573,4337 6577,4329 6580,4320 6584,4312 6587,4302 6590,4294 6592,4285 6592,4276 6595,4267 6595,4258 6595,4249 6595,4240 6594,4231 6592,4222 6591,4213 6589,4205 6587,4197 6584,4189 6580,4181 6576,4174 6572,4167 6567,4159 6562,4152 6556,4146 6551,4140 6544,4134 6538,4129 6531,4124 6523,4119 6516,4115 6508,4111 6500,4107 6492,4104 6483,4102 6475,4099 6465,4098 6457,4096 6447,4095 6439,4096 6429,4095 6419,4096 6410,4097 6401,4098 6392,4100 6383,4103 6373,4105 6365,4109 6355,4112 6346,4116 6338,4121 6330,4126 6321,4131 6313,4136 6362,4205 6366,4202 6370,4199 6375,4197 6379,4195 6383,4193 6388,4191 6392,4189 6397,4188 6402,4187 6406,4186 6411,4185 6415,4185 6420,4185 6425,4184 6430,4184 6434,4185 6439,4185 6443,4186 6448,4187 6452,4189 6456,4190 6460,4192 6464,4194 6468,4196 6472,4198 6475,4201 6478,4203 6481,4206 6485,4209 6487,4213 6489,4216 6492,4219 6494,4222 6496,4227 6498,4231 6499,4235 6501,4239 6501,4243 6502,4247 6503,4252 6504,4256 6503,4260 6504,4265 6503,4269 6503,4274 6501,4279 6501,4283 6499,4288 6497,4292 6496,4297 6494,4301 6492,4305 6489,4309 6487,4313 6485,4317 6481,4321 6478,4325 6475,4328 6471,4332 6468,4335 6464,4338 6460,4341 6509,4410 Z M 6469,4023 L 6469,4023 Z M 6352,4524 L 6352,4524 Z"/>
        </g>
       </g>
      </g>
      <g class="Group">
       <g class="com.sun.star.drawing.CustomShape">
        <g id="id15">
         <rect class="BoundingBox" stroke="none" fill="none" x="3562" y="3850" width="1818" height="2010"/>
         <path fill="rgb(255,255,255)" stroke="none" d="M 3619,5498 C 3590,5534 3600,5597 3637,5624 L 3939,5842 C 3976,5869 4042,5860 4070,5824 L 5322,4212 C 5350,4175 5340,4111 5303,4084 L 5001,3866 C 4964,3839 4898,3849 4870,3885 L 3619,5498 Z M 3562,5570 L 3562,5570 Z M 5379,4138 L 5379,4138 Z"/>
        </g>
       </g>
       <g class="com.sun.star.drawing.CustomShape">
        <g id="id16">
         <rect class="BoundingBox" stroke="none" fill="none" x="3591" y="3720" width="1775" height="485"/>
         <path fill="rgb(255,255,255)" stroke="none" d="M 3671,3720 C 3631,3720 3591,3760 3591,3800 L 3591,4123 C 3591,4163 3631,4204 3671,4204 L 5284,4204 C 5324,4204 5365,4163 5365,4123 L 5365,3800 C 5365,3760 5324,3720 5284,3720 L 3671,3720 Z M 3591,3720 L 3591,3720 Z M 5365,4204 L 5365,4204 Z"/>
        </g>
       </g>
       <g class="com.sun.star.drawing.CustomShape">
        <g id="id17">
         <rect class="BoundingBox" stroke="none" fill="none" x="3592" y="5496" width="1775" height="486"/>
         <path fill="rgb(255,255,255)" stroke="none" d="M 3672,5496 C 3632,5496 3592,5536 3592,5576 L 3592,5900 C 3592,5940 3632,5981 3672,5981 L 5284,5981 C 5324,5981 5364,5940 5364,5900 L 5364,5576 C 5364,5536 5324,5496 5284,5496 L 3672,5496 Z M 3592,5496 L 3592,5496 Z M 5365,5981 L 5365,5981 Z"/>
        </g>
       </g>
       <g class="com.sun.star.drawing.CustomShape">
        <g id="id18">
         <rect class="BoundingBox" stroke="none" fill="none" x="4292" y="5180" width="278" height="498"/>
         <path fill="rgb(255,255,255)" stroke="none" d="M 4386,5289 L 4377,5295 4370,5301 4363,5307 4355,5313 4348,5320 4342,5328 4335,5335 4330,5343 4324,5351 4319,5359 4315,5367 4311,5375 4307,5384 4303,5393 4300,5402 4298,5411 4296,5419 4294,5429 4294,5437 4293,5446 4292,5455 4293,5463 4294,5472 4295,5481 4297,5489 4299,5498 4301,5506 4305,5514 4308,5521 4312,5530 4317,5536 4321,5543 4327,5550 4332,5556 4338,5562 4345,5568 4351,5573 4358,5578 4366,5583 4374,5587 4381,5591 4389,5594 4398,5596 4406,5599 4415,5601 4424,5603 4433,5604 4442,5605 4451,5605 4461,5605 4470,5605 4479,5603 4488,5602 4498,5599 4507,5598 4516,5594 4526,5591 4534,5588 4543,5583 4551,5579 4560,5574 4568,5569 4523,5499 4519,5502 4515,5505 4510,5507 4505,5509 4501,5510 4497,5512 4492,5514 4488,5515 4482,5516 4478,5516 4473,5517 4469,5517 4464,5517 4460,5518 4455,5517 4451,5516 4446,5516 4441,5514 4437,5514 4433,5511 4429,5511 4425,5508 4421,5506 4417,5504 4413,5502 4410,5499 4407,5496 4404,5493 4401,5490 4399,5486 4396,5483 4394,5480 4392,5476 4390,5471 4389,5468 4387,5464 4386,5460 4385,5455 4385,5451 4384,5446 4384,5442 4385,5438 4384,5433 4385,5429 4385,5424 4387,5419 4388,5415 4390,5410 4392,5407 4394,5402 4396,5398 4398,5394 4400,5390 4403,5386 4406,5382 4409,5378 4413,5375 4416,5371 4419,5368 4423,5364 4427,5361 4431,5359 4386,5289 Z M 4408,5676 L 4408,5676 Z M 4546,5181 L 4546,5181 Z"/>
        </g>
       </g>
       <g class="com.sun.star.drawing.CustomShape">
        <g id="id19">
         <rect class="BoundingBox" stroke="none" fill="none" x="4373" y="4021" width="283" height="505"/>
         <path fill="rgb(255,255,255)" stroke="none" d="M 4569,4410 L 4577,4404 4584,4397 4591,4391 4599,4384 4605,4377 4611,4369 4617,4362 4622,4353 4627,4345 4632,4337 4636,4329 4640,4320 4644,4311 4646,4301 4649,4293 4651,4284 4652,4275 4654,4266 4654,4257 4655,4248 4655,4239 4653,4230 4652,4222 4651,4213 4648,4204 4646,4196 4643,4188 4639,4180 4635,4173 4632,4166 4626,4158 4621,4151 4616,4145 4610,4139 4603,4133 4597,4128 4590,4123 4583,4118 4575,4114 4567,4110 4559,4106 4551,4103 4542,4101 4534,4099 4525,4098 4516,4096 4507,4095 4498,4095 4488,4095 4479,4096 4470,4096 4461,4098 4451,4100 4442,4103 4433,4105 4424,4109 4415,4112 4406,4116 4398,4121 4390,4125 4381,4131 4373,4136 4422,4205 4426,4202 4430,4199 4435,4197 4439,4195 4443,4193 4448,4191 4452,4189 4457,4188 4462,4187 4466,4186 4471,4185 4475,4184 4480,4184 4484,4184 4489,4184 4494,4184 4499,4184 4503,4186 4507,4187 4511,4189 4516,4189 4519,4191 4523,4193 4527,4195 4531,4198 4534,4200 4538,4203 4541,4205 4544,4209 4547,4212 4549,4215 4551,4219 4554,4222 4556,4227 4557,4230 4559,4234 4560,4238 4561,4243 4562,4247 4563,4251 4563,4256 4563,4260 4563,4265 4563,4269 4563,4274 4561,4279 4560,4283 4559,4288 4557,4292 4555,4296 4553,4300 4551,4304 4549,4308 4546,4313 4544,4317 4541,4321 4538,4325 4535,4328 4531,4332 4528,4335 4524,4338 4520,4341 4569,4410 Z M 4528,4022 L 4528,4022 Z M 4413,4525 L 4413,4525 Z"/>
        </g>
       </g>
      </g>
     </g>
    </g>
   </g>
  </g>
 </g>
</svg>